<svg width="41" height="22" viewBox="0 0 41 22" fill="none" xmlns="http://www.w3.org/2000/svg">
<path d="M3.92208 16.3173C6.64823 16.3173 8.26757 14.1854 8.26757 10.5753C8.26757 9.2159 8.00759 8.07196 7.5099 7.18801C6.78936 5.81379 5.54886 5.07098 3.98151 5.07098C1.64906 5.07098 0 6.63832 0 8.83707C0 10.9021 1.48564 12.4026 3.52839 12.4026C4.78375 12.4026 5.80141 11.8158 6.30653 10.7981H6.32882C6.32882 10.7981 6.35853 10.7981 6.36596 10.7981C6.38081 10.7981 6.43281 10.7981 6.43281 10.7981C6.43281 13.2494 5.50429 14.7128 3.93694 14.7128C3.01584 14.7128 2.30274 14.2076 2.05761 13.398H0.148564C0.467976 15.1585 1.96104 16.3173 3.92208 16.3173ZM3.98894 10.8798C2.75586 10.8798 1.87933 10.0033 1.87933 8.77764C1.87933 7.5817 2.80043 6.66804 3.99636 6.66804C5.1923 6.66804 6.1134 7.59656 6.1134 8.80735C6.1134 10.0033 5.21459 10.8798 3.98894 10.8798Z" fill="#111827"/>
<path d="M11.4026 16.2133C12.1082 16.2133 12.5911 15.7081 12.5911 15.0396C12.5911 14.3636 12.1082 13.8659 11.4026 13.8659C10.7043 13.8659 10.2141 14.3636 10.2141 15.0396C10.2141 15.7081 10.7043 16.2133 11.4026 16.2133ZM11.4026 10.6421C12.1082 10.6421 12.5911 10.1444 12.5911 9.47589C12.5911 8.79993 12.1082 8.30224 11.4026 8.30224C10.7043 8.30224 10.2141 8.79993 10.2141 9.47589C10.2141 10.1444 10.7043 10.6421 11.4026 10.6421Z" fill="#111827"/>
<path d="M19.5442 16.0573H21.3789V14.0591H22.8274V12.4397H21.3789V5.33839H18.6751C16.7809 8.19081 15.2729 10.5753 14.3073 12.3506V14.0591H19.5442V16.0573ZM16.0826 12.3729C17.3306 10.1741 18.4448 8.41366 19.4699 6.89831H19.5739V12.4843H16.0826V12.3729Z" fill="#111827"/>
<path d="M26.9132 16.0573H28.8297V5.33839H26.9206L24.1202 7.29943V9.14162L26.7869 7.26972H26.9132V16.0573Z" fill="#111827"/>
</svg>
